<?xml version="1.0" standalone="no"?>
<!DOCTYPE svg PUBLIC "-//W3C//DTD SVG 20010904//EN"
 "http://www.w3.org/TR/2001/REC-SVG-20010904/DTD/svg10.dtd">
<svg version="1.0" xmlns="http://www.w3.org/2000/svg"
 width="876.000000pt" height="434.000000pt" viewBox="0 0 876.000000 434.000000"
 preserveAspectRatio="xMidYMid meet">

<g transform="translate(0.000000,434.000000) scale(0.100000,-0.100000)"
fill="#000000" stroke="none">
<path d="M4270 4260 c0 -6 20 -41 44 -78 41 -63 336 -520 356 -552 45 -72 179
-277 242 -373 43 -66 78 -123 78 -128 0 -5 -300 -9 -730 -9 -451 0 -730 -4
-730 -9 0 -6 43 -76 96 -158 53 -81 111 -170 129 -198 17 -27 78 -122 135
-210 115 -178 148 -230 274 -423 47 -73 86 -137 86 -143 0 -5 -276 -9 -730 -9
-484 0 -730 -3 -730 -10 0 -9 214 -347 238 -375 5 -6 11 -16 13 -21 4 -10 180
-284 355 -551 41 -62 74 -117 74 -123 0 -5 3 -10 8 -10 4 0 13 -13 20 -30 8
-16 19 -30 25 -30 10 0 165 223 176 253 2 6 8 16 13 22 13 16 279 426 299 461
9 18 51 83 92 145 41 63 94 145 118 182 l44 68 20 -25 c11 -14 54 -78 95 -143
41 -65 126 -197 189 -293 62 -96 122 -188 131 -205 10 -16 72 -113 139 -215
67 -102 129 -200 138 -217 9 -18 22 -33 29 -33 6 0 51 62 98 138 48 75 132
205 187 287 55 83 103 157 106 165 4 8 61 98 128 200 66 102 142 220 169 263
26 42 52 77 56 77 4 0 40 -51 80 -112 40 -62 113 -176 163 -253 50 -77 109
-169 132 -205 23 -36 88 -137 145 -225 57 -88 128 -199 159 -247 31 -48 61
-88 66 -88 9 0 84 107 94 134 2 6 43 70 91 141 47 72 89 137 93 145 3 8 61 98
128 200 67 102 129 199 139 215 21 36 155 242 199 305 30 43 235 359 256 394
13 21 149 231 237 364 37 56 68 105 68 107 0 3 41 67 90 142 50 76 95 145 100
153 6 8 71 109 145 223 74 115 135 211 135 213 0 3 4 10 10 17 5 7 49 73 97
147 48 74 110 171 138 215 29 44 83 127 120 185 37 58 71 107 76 108 5 2 9 12
9 23 0 19 -39 19 -2225 19 -1494 0 -2225 -3 -2225 -10z m2990 -44 c0 -3 52
-85 116 -183 64 -98 126 -194 139 -213 12 -19 60 -94 106 -166 46 -71 89 -138
94 -147 6 -9 62 -96 125 -193 63 -98 117 -181 118 -186 2 -4 -323 -8 -722 -8
-399 0 -726 2 -726 5 0 6 12 25 210 330 68 105 151 233 184 285 32 52 89 140
126 196 37 55 69 105 71 110 2 5 33 53 67 107 55 83 66 95 78 83 8 -8 14 -17
14 -20z m-1441 -69 c28 -43 51 -80 51 -82 0 -4 42 -69 310 -480 63 -97 122
-189 130 -203 8 -15 23 -38 33 -52 47 -67 127 -194 127 -202 0 -4 -324 -8
-720 -8 -396 0 -720 2 -720 6 0 3 18 32 40 64 22 32 40 61 40 65 0 3 22 38 49
78 79 118 261 397 261 402 0 5 215 336 271 417 21 31 39 61 39 67 0 12 23 21
31 12 4 -3 30 -41 58 -84z m-789 -1068 c0 -5 36 -63 80 -129 44 -66 80 -121
80 -124 0 -2 68 -107 150 -233 83 -125 154 -235 157 -243 4 -8 42 -68 85 -132
43 -65 78 -120 78 -123 0 -3 16 -28 35 -55 19 -27 35 -54 35 -60 0 -7 -242
-10 -721 -10 -571 0 -720 3 -717 13 2 6 33 57 69 112 146 220 239 366 239 374
0 4 9 16 20 26 11 10 20 22 20 27 0 4 65 107 145 229 80 121 145 222 145 225
0 3 18 32 41 65 35 52 59 68 59 38z m1533 -76 c35 -54 78 -124 97 -155 19 -32
38 -58 42 -58 5 0 8 -5 8 -10 0 -6 33 -61 74 -123 40 -61 98 -150 128 -197 82
-128 258 -400 285 -441 12 -19 23 -38 23 -42 0 -4 -326 -7 -725 -7 -573 0
-725 3 -725 13 0 6 9 23 20 37 11 14 48 68 82 120 33 52 106 165 161 250 125
194 278 431 380 589 42 67 79 121 82 121 3 0 33 -44 68 -97z"/>
<path d="M100 295 l0 -246 57 3 57 3 0 95 c1 94 1 94 26 94 25 0 25 0 28 -97
l3 -98 55 3 55 3 0 240 0 240 -53 0 -53 0 -5 -95 c-5 -93 -5 -95 -30 -95 -25
0 -25 1 -26 95 l0 95 -57 3 -57 3 0 -246z"/>
<path d="M445 528 c-3 -8 -4 -117 -3 -243 l3 -230 133 -3 132 -3 0 51 0 50
-75 0 -75 0 0 44 0 45 43 3 42 3 0 50 0 50 -40 0 -40 0 0 45 0 45 70 0 70 0 0
50 0 50 -128 3 c-97 2 -129 0 -132 -10z"/>
<path d="M767 533 c-4 -3 -7 -114 -7 -245 l0 -238 60 0 60 0 0 95 c0 52 4 95
9 95 5 0 15 -26 21 -57 6 -32 16 -75 22 -95 l11 -38 59 0 c32 0 58 4 58 8 0 4
-11 46 -25 93 -30 103 -30 104 -4 141 17 23 22 44 22 94 0 79 -29 124 -91 142
-42 13 -184 17 -195 5z m147 -103 c48 -18 29 -100 -23 -100 -7 0 -11 23 -11
55 0 30 2 55 4 55 3 0 16 -4 30 -10z"/>
<path d="M1110 295 l0 -245 61 0 60 0 -2 93 c-1 50 2 91 7 90 5 -1 18 -41 29
-90 l21 -88 63 -3 c57 -3 63 -1 58 15 -3 10 -17 58 -31 107 -25 89 -26 90 -6
110 43 47 41 160 -4 209 -31 33 -83 47 -178 47 l-78 0 0 -245z m155 131 c21
-15 24 -74 3 -87 -30 -19 -38 -9 -38 46 0 58 5 63 35 41z"/>
<path d="M1457 534 c-4 -4 -7 -115 -7 -246 l0 -239 63 3 62 3 0 240 0 240 -55
3 c-31 2 -59 0 -63 -4z"/>
<path d="M1637 534 c-4 -4 -7 -115 -7 -246 l0 -238 60 0 60 0 1 118 1 117 18
-65 c11 -36 25 -87 33 -115 l14 -50 67 -3 66 -3 -2 243 -3 243 -55 0 -55 0 -5
-120 c-5 -119 -5 -120 -17 -70 -7 28 -23 82 -35 120 l-23 70 -55 3 c-31 2 -59
0 -63 -4z"/>
<path d="M2063 520 c-56 -33 -63 -61 -63 -232 0 -134 2 -157 19 -182 11 -16
30 -35 43 -42 32 -18 133 -17 168 1 43 22 57 59 61 160 l4 90 -75 0 -75 0 -3
-34 c-3 -26 2 -39 18 -51 18 -14 21 -23 16 -48 -4 -16 -13 -33 -21 -36 -29
-11 -36 21 -33 155 3 126 4 134 23 134 14 0 21 -8 25 -30 5 -28 9 -30 58 -35
76 -8 87 10 52 87 -11 25 -33 51 -52 63 -44 26 -122 27 -165 0z"/>
<path d="M2495 528 c-3 -7 -4 -117 -3 -243 l3 -230 60 0 60 0 0 240 0 240 -58
3 c-40 2 -59 -1 -62 -10z"/>
<path d="M2677 533 c-4 -3 -7 -114 -7 -245 l0 -238 61 0 62 0 -5 115 c-2 63
-1 112 3 108 4 -5 20 -51 34 -103 15 -52 28 -101 30 -108 3 -8 26 -12 70 -12
l65 0 -2 243 -3 242 -55 0 -55 0 -2 -105 c-1 -58 -3 -112 -3 -120 -1 -8 -16
35 -33 95 -18 61 -36 116 -40 123 -9 13 -108 17 -120 5z"/>
<path d="M3102 520 c-35 -22 -62 -72 -62 -117 0 -51 37 -106 105 -156 65 -48
79 -73 52 -95 -17 -15 -34 -2 -38 28 -4 23 -8 25 -59 25 -65 0 -71 -12 -45
-81 21 -55 54 -74 133 -74 66 0 101 19 127 70 36 69 9 133 -86 206 -64 49 -82
74 -73 98 11 29 44 19 51 -14 6 -31 6 -31 62 -28 67 4 73 16 40 84 -15 33 -32
50 -55 60 -48 20 -113 17 -152 -6z"/>
<path d="M3374 527 c-2 -7 -3 -116 -2 -242 l3 -230 58 -3 57 -3 0 246 0 245
-55 0 c-36 0 -57 -5 -61 -13z"/>
<path d="M3614 521 c-60 -37 -64 -50 -64 -224 0 -177 8 -205 62 -233 43 -22
148 -16 179 11 35 32 49 78 49 165 l0 81 -72 -3 -73 -3 -3 -42 c-2 -34 0 -43
12 -43 22 0 21 -63 0 -81 -14 -11 -18 -10 -30 6 -21 28 -20 258 1 275 23 19
45 4 45 -30 l0 -30 61 0 62 0 -7 47 c-3 26 -13 57 -22 71 -33 51 -142 69 -200
33z"/>
<path d="M3897 534 c-4 -4 -7 -115 -7 -246 l0 -238 60 0 60 0 0 94 c0 84 2 94
19 99 11 3 22 2 25 -1 3 -3 6 -47 6 -99 l0 -93 60 0 60 0 -2 243 -3 242 -55 0
-55 0 -3 -97 c-3 -96 -3 -98 -27 -98 -24 0 -24 2 -27 98 l-3 97 -50 3 c-28 2
-54 0 -58 -4z"/>
<path d="M4230 484 l0 -57 45 6 45 7 0 -195 0 -195 60 0 60 0 2 193 3 192 45
0 45 0 0 50 0 50 -152 3 -153 3 0 -57z"/>
<path d="M4640 518 c-43 -29 -60 -61 -60 -113 0 -54 26 -93 104 -156 46 -36
66 -59 66 -75 0 -44 -43 -35 -52 11 -3 17 -11 20 -58 20 -54 0 -55 -1 -58 -30
-2 -16 4 -44 13 -61 24 -45 63 -64 133 -64 50 0 66 4 91 26 41 35 58 91 42
144 -9 31 -28 53 -82 96 -80 65 -96 88 -78 110 19 23 39 16 46 -16 5 -29 8
-30 59 -30 29 0 55 4 58 8 11 18 -15 87 -43 115 -25 26 -40 31 -88 35 -49 3
-64 0 -93 -20z"/>
<path d="M5070 295 l0 -245 55 0 55 0 0 245 0 245 -55 0 -55 0 0 -245z"/>
<path d="M5244 527 c-2 -7 -3 -116 -2 -242 l3 -230 59 -3 59 -3 -5 115 c-6
120 3 148 22 74 12 -45 37 -141 46 -170 4 -15 17 -18 70 -18 l64 0 -2 243 -3
242 -55 0 -55 0 1 -117 c1 -65 -2 -116 -6 -113 -4 2 -20 53 -36 112 -15 60
-33 111 -38 115 -19 13 -116 9 -122 -5z"/>
<path d="M5684 526 c-56 -25 -74 -82 -74 -227 0 -200 22 -240 134 -247 99 -6
149 31 158 118 l3 35 -57 3 c-56 3 -58 2 -58 -21 0 -34 -25 -54 -45 -37 -12
10 -15 38 -15 135 0 137 4 155 31 155 14 0 21 -9 26 -30 5 -29 8 -30 59 -30
29 0 55 4 58 8 11 18 -15 87 -43 115 -25 26 -39 31 -88 34 -35 2 -70 -2 -89
-11z"/>
<path d="M5985 160 c-23 -25 -22 -80 1 -97 44 -32 114 0 114 52 0 55 -78 85
-115 45z"/>
</g>
</svg>
